<svg xmlns="http://www.w3.org/2000/svg" viewBox="0 0 512 512">
  <rect width="512" height="512" rx="112" fill="#EAF1FF"/>
  <path d="M102 294c0-42 34-76 77-80 8-57 56-101 115-101 55 0 102 38 114 91 42 3 76 37 76 79 0 46-40 83-89 83H177c-42 0-75-31-75-72z" fill="none" stroke="#071B3A" stroke-width="24" stroke-linejoin="round"/>
  <path d="M256 205l82 32v61c0 69-43 111-82 129-39-18-82-60-82-129v-61z" fill="#155EEF"/>
  <path d="M219 300l25 25 50-58" fill="none" stroke="white" stroke-width="22" stroke-linecap="round" stroke-linejoin="round"/>
</svg>